# xmcd CD database file
#
# Track frame offsets:
#	150
#	12835
#	27299
#	40123
#	55818
#	64603
#	77297
#	89641
#	112403
#	127645
#	141604
#	151431
#	167979
#	191604
#	207805
#
# Disc length: 2920 seconds
#
# Revision: 0
# Processed by: cddbd v1.5.2PL0 Copyright (c) Steve Scherf et al.
# Submitted via: CDex 1.70beta2
#
DISCID=c90b660f
DTITLE=B.B. KING - The Blues King's Best cd1
DYEAR=2013
DGENRE=Blues
TTITLE0=Got The Blues
TTITLE1=B.B. Boogie
TTITLE2=Mistreated Woman
TTITLE3=Walkin' And Gryin'
TTITLE4=A New Of Driving
TTITLE5=Please Love Me 
TTITLE6=From The Bottom(Feat. Sonny Boy Williamson)
TTITLE7=Every Day I Have The Blues
TTITLE8=Take My Hand, Precious Lord
TTITLE9=Save A Seat For Me
TTITLE10=Swing Low, Sweet Chariot
TTITLE11=I Am Willing To Run All The Way
TTITLE12=You've Done Lost Your Good Thing Now
TTITLE13=It's My Own Foult
TTITLE14=Catfish Blues(Aka Fishin' After Mew)
EXTD=YEAR: 2013
EXTT0=
EXTT1=
EXTT2=
EXTT3=
EXTT4=
EXTT5=
EXTT6=
EXTT7=
EXTT8=
EXTT9=
EXTT10=
EXTT11=
EXTT12=
EXTT13=
EXTT14=
PLAYORDER=
